<svg fill="#FFFFFF" xmlns="http://www.w3.org/2000/svg" width="450" height="101" viewBox="0 0 450 101">
  <path class="cls-1" d="M735,942a14.952,14.952,0,0,1,.788-5.019,11.137,11.137,0,0,1,2.181-3.782,9.435,9.435,0,0,1,3.307-2.387,10.379,10.379,0,0,1,4.167-.828,7.8,7.8,0,0,1,3.755.866,9.95,9.95,0,0,1,2.646,2l-1.68,1.873a7.7,7.7,0,0,0-2.057-1.573,5.643,5.643,0,0,0-2.628-.581,6.9,6.9,0,0,0-3.04.652,6.618,6.618,0,0,0-2.325,1.873,9.026,9.026,0,0,0-1.5,2.951,13.11,13.11,0,0,0-.537,3.889,13.79,13.79,0,0,0,.52,3.939,9.262,9.262,0,0,0,1.448,2.986,6.4,6.4,0,0,0,2.271,1.91,6.643,6.643,0,0,0,3.021.67,6.293,6.293,0,0,0,2.987-.67,9.149,9.149,0,0,0,2.413-1.91l1.681,1.8a10.379,10.379,0,0,1-3.146,2.474,8.769,8.769,0,0,1-4.006.883,10.213,10.213,0,0,1-4.1-.812,9.279,9.279,0,0,1-3.254-2.349,10.887,10.887,0,0,1-2.146-3.782A15.585,15.585,0,0,1,735,942Zm29.4,12.014a9.609,9.609,0,0,1-4.059-.846,9.059,9.059,0,0,1-3.165-2.421,11.312,11.312,0,0,1-2.056-3.817,16.158,16.158,0,0,1-.734-5.036,15.84,15.84,0,0,1,.734-5,10.975,10.975,0,0,1,2.056-3.747,8.866,8.866,0,0,1,3.165-2.35,9.958,9.958,0,0,1,4.059-.811,9.788,9.788,0,0,1,4.06.828,9.217,9.217,0,0,1,3.183,2.37,10.792,10.792,0,0,1,2.073,3.745,15.713,15.713,0,0,1,.734,4.967,16.158,16.158,0,0,1-.734,5.036,11.168,11.168,0,0,1-2.073,3.817,9.262,9.262,0,0,1-3.183,2.421A9.61,9.61,0,0,1,764.4,954.016Zm0-2.58a5.982,5.982,0,0,0,2.843-.67,6.374,6.374,0,0,0,2.182-1.928,9.5,9.5,0,0,0,1.413-3,14.355,14.355,0,0,0,.5-3.94,14.018,14.018,0,0,0-.5-3.889,8.942,8.942,0,0,0-1.413-2.934,6.449,6.449,0,0,0-2.182-1.855,6.527,6.527,0,0,0-5.687,0,6.456,6.456,0,0,0-2.181,1.855,8.92,8.92,0,0,0-1.411,2.934,13.94,13.94,0,0,0-.5,3.889,14.276,14.276,0,0,0,.5,3.94,9.48,9.48,0,0,0,1.411,3,6.381,6.381,0,0,0,2.181,1.928A5.986,5.986,0,0,0,764.4,951.436Zm15.092-21.027h3.075l8.476,14.561,2.539,4.807h0.143q-0.107-1.77-.233-3.659t-0.125-3.727V930.409h2.826v23.184h-3.076L784.6,939l-2.539-4.772H781.92q0.141,1.77.267,3.587t0.125,3.658v12.123h-2.824V930.409ZM801.266,942a14.977,14.977,0,0,1,.788-5.019,11.12,11.12,0,0,1,2.181-3.782,9.438,9.438,0,0,1,3.308-2.387,10.37,10.37,0,0,1,4.166-.828,7.807,7.807,0,0,1,3.756.866,9.961,9.961,0,0,1,2.645,2l-1.681,1.873a7.691,7.691,0,0,0-2.056-1.573,5.649,5.649,0,0,0-2.628-.581,6.891,6.891,0,0,0-3.039.652,6.621,6.621,0,0,0-2.326,1.873,9.026,9.026,0,0,0-1.5,2.951,13.11,13.11,0,0,0-.537,3.889,13.79,13.79,0,0,0,.52,3.939,9.24,9.24,0,0,0,1.447,2.986,6.414,6.414,0,0,0,2.272,1.91,6.649,6.649,0,0,0,3.021.67,6.306,6.306,0,0,0,2.988-.67,9.161,9.161,0,0,0,2.412-1.91l1.681,1.8a10.379,10.379,0,0,1-3.146,2.474,8.769,8.769,0,0,1-4.006.883,10.206,10.206,0,0,1-4.1-.812,9.27,9.27,0,0,1-3.254-2.349,10.887,10.887,0,0,1-2.146-3.782A15.585,15.585,0,0,1,801.266,942Zm21.782-11.593h13.518v2.473h-10.55v7.282h8.905v2.509h-8.905v8.412h10.907v2.508H823.048V930.409Zm18.844,0h7.189a16.561,16.561,0,0,1,3.54.353,7.485,7.485,0,0,1,2.736,1.148,5.365,5.365,0,0,1,1.753,2.1,8.5,8.5,0,0,1,0,6.4,5.959,5.959,0,0,1-1.771,2.226,7.875,7.875,0,0,1-2.736,1.326,13.213,13.213,0,0,1-3.522.44h-4.22v9.189h-2.969V930.409ZM848.723,942a7.425,7.425,0,0,0,4.56-1.15,4.293,4.293,0,0,0,1.484-3.622,3.832,3.832,0,0,0-1.5-3.482,8.478,8.478,0,0,0-4.542-.972h-3.862V942h3.862Zm17.775-9.12h-7.082v-2.473h17.167v2.473H869.5v20.711h-3V932.882Zm41.366,13.642h-8.555l-2.255,7.069h-3.043l7.947-23.184h3.364l7.947,23.184h-3.187Zm-0.752-2.367L906,940.622q-0.643-1.942-1.217-3.868t-1.145-3.941H903.5q-0.535,2.016-1.109,3.941t-1.217,3.868l-1.11,3.535h7.052Zm22.37,9.436-5.656-9.79h-4.258v9.79H916.6V930.409h7.337a15.35,15.35,0,0,1,3.311.336,7.131,7.131,0,0,1,2.613,1.113,5.314,5.314,0,0,1,1.7,2.014,6.857,6.857,0,0,1,.608,3.04,6.336,6.336,0,0,1-1.432,4.345,7.323,7.323,0,0,1-3.829,2.229l5.941,10.107h-3.365ZM919.568,941.4h3.937a6.894,6.894,0,0,0,4.224-1.113,3.968,3.968,0,0,0,1.467-3.376,3.491,3.491,0,0,0-1.467-3.216,8,8,0,0,0-4.224-.92h-3.937V941.4Zm21.976-8.519h-7.087v-2.473h17.182v2.473h-7.087v20.711h-3.008V932.882Zm16.538,15.658a3.916,3.916,0,0,1-1.539-.3,3.841,3.841,0,0,1-1.271-.866,4.14,4.14,0,0,1-.877-1.343,4.478,4.478,0,0,1-.322-1.731,4.607,4.607,0,0,1,.322-1.749,3.937,3.937,0,0,1,.877-1.343,4.277,4.277,0,0,1,1.271-.866,3.725,3.725,0,0,1,1.539-.32,3.775,3.775,0,0,1,1.521.32,4.211,4.211,0,0,1,1.289.866,3.952,3.952,0,0,1,.877,1.343,4.626,4.626,0,0,1,.322,1.749,4.5,4.5,0,0,1-.322,1.731,4.156,4.156,0,0,1-.877,1.343,3.794,3.794,0,0,1-1.289.866A3.968,3.968,0,0,1,958.082,948.54Zm15.892-18.131h2.971v23.184h-2.971V930.409Zm9.413,0h2.971v20.676h10.273v2.508H983.387V930.409Zm17.393,0h2.97v20.676h10.28v2.508h-13.25V930.409Zm16.25,0H1020v13.679a12.42,12.42,0,0,0,.43,3.5,6.175,6.175,0,0,0,1.17,2.261,4.111,4.111,0,0,0,1.73,1.219,6.5,6.5,0,0,0,4.33,0,4.331,4.331,0,0,0,1.76-1.219,6.036,6.036,0,0,0,1.18-2.261,12.42,12.42,0,0,0,.43-3.5V930.409h2.86v13.606a14.825,14.825,0,0,1-.64,4.7,8.223,8.223,0,0,1-1.77,3.092,6.512,6.512,0,0,1-2.67,1.7,10.5,10.5,0,0,1-3.33.512,10.675,10.675,0,0,1-3.35-.512,6.356,6.356,0,0,1-2.68-1.7,8.223,8.223,0,0,1-1.77-3.092,14.8,14.8,0,0,1-.65-4.7V930.409Zm22.91,18.131a9.872,9.872,0,0,0,2.95,2.1,8.277,8.277,0,0,0,3.53.794,5.569,5.569,0,0,0,3.61-1.041,3.351,3.351,0,0,0,1.29-2.738,3.429,3.429,0,0,0-.3-1.5,3.3,3.3,0,0,0-.82-1.059,5.968,5.968,0,0,0-1.24-.8c-0.48-.236-0.99-0.484-1.54-0.742l-3.36-1.45a16.091,16.091,0,0,1-1.69-.849,7.041,7.041,0,0,1-1.54-1.2,5.675,5.675,0,0,1-1.1-1.68,5.859,5.859,0,0,1,.12-4.682,5.963,5.963,0,0,1,1.54-1.962,7.193,7.193,0,0,1,2.33-1.291,9.082,9.082,0,0,1,2.95-.457,9.476,9.476,0,0,1,3.9.794,9.744,9.744,0,0,1,3.04,2.067l-1.61,1.908a8.377,8.377,0,0,0-2.38-1.608,7.158,7.158,0,0,0-2.95-.581,5.153,5.153,0,0,0-3.17.9,2.944,2.944,0,0,0-1.2,2.491,2.867,2.867,0,0,0,.34,1.432,3.494,3.494,0,0,0,.92,1.024,7.387,7.387,0,0,0,1.25.779c0.45,0.225.92,0.429,1.4,0.619l3.32,1.412a14.744,14.744,0,0,1,1.9.972,6.783,6.783,0,0,1,1.54,1.271,5.516,5.516,0,0,1,1.02,1.7,6.226,6.226,0,0,1,.38,2.247,6.087,6.087,0,0,1-.56,2.579,6.244,6.244,0,0,1-1.59,2.1,7.54,7.54,0,0,1-2.51,1.412,10.072,10.072,0,0,1-3.33.512,11.323,11.323,0,0,1-8.23-3.426Zm23.19-15.658h-7.08v-2.473h17.18v2.473h-7.09v20.711h-3.01V932.882Zm27.21,20.711-5.66-9.79h-4.25v9.79h-2.98V930.409h7.34a15.268,15.268,0,0,1,3.31.336,7.129,7.129,0,0,1,2.62,1.113,5.421,5.421,0,0,1,1.7,2.014,6.93,6.93,0,0,1,.6,3.04,6.3,6.3,0,0,1-1.43,4.345,7.3,7.3,0,0,1-3.83,2.229l5.94,10.107h-3.36Zm-9.91-12.192h3.93a6.907,6.907,0,0,0,4.23-1.113,3.962,3.962,0,0,0,1.46-3.376,3.485,3.485,0,0,0-1.46-3.216,8.02,8.02,0,0,0-4.23-.92h-3.93V941.4Zm28.2,5.123h-8.55l-2.26,7.069h-3.04l7.95-23.184h3.36l7.95,23.184h-3.19Zm-0.75-2.367-1.11-3.535c-0.43-1.295-.84-2.586-1.22-3.868s-0.76-2.6-1.14-3.941h-0.15c-0.35,1.344-.72,2.655-1.1,3.941s-0.79,2.573-1.22,3.868l-1.11,3.535h7.05Zm12.92-11.275h-7.09v-2.473h17.19v2.473h-7.09v20.711h-3.01V932.882Zm14.32-2.473h2.97v23.184h-2.97V930.409Zm18.07,23.607a9.613,9.613,0,0,1-4.06-.846,9.132,9.132,0,0,1-3.17-2.421,11.2,11.2,0,0,1-2.05-3.817,16.124,16.124,0,0,1-.74-5.036,15.807,15.807,0,0,1,.74-5,10.865,10.865,0,0,1,2.05-3.747,8.936,8.936,0,0,1,3.17-2.35,9.963,9.963,0,0,1,4.06-.811,9.839,9.839,0,0,1,4.07.828,9.216,9.216,0,0,1,3.18,2.37,10.708,10.708,0,0,1,2.08,3.745,15.687,15.687,0,0,1,.73,4.967,16.132,16.132,0,0,1-.73,5.036,11.079,11.079,0,0,1-2.08,3.817,9.261,9.261,0,0,1-3.18,2.421A9.659,9.659,0,0,1,1153.19,954.016Zm0-2.58a6.016,6.016,0,0,0,2.85-.67,6.442,6.442,0,0,0,2.18-1.928,9.579,9.579,0,0,0,1.42-3,14.471,14.471,0,0,0,.5-3.94,14.131,14.131,0,0,0-.5-3.889,9.011,9.011,0,0,0-1.42-2.934,6.52,6.52,0,0,0-2.18-1.855,6.533,6.533,0,0,0-5.69,0,6.456,6.456,0,0,0-2.19,1.855,9.2,9.2,0,0,0-1.41,2.934,14.131,14.131,0,0,0-.5,3.889,14.471,14.471,0,0,0,.5,3.94,9.792,9.792,0,0,0,1.41,3,6.38,6.38,0,0,0,2.19,1.928A5.976,5.976,0,0,0,1153.19,951.436Zm15.11-21.027h3.08l8.48,14.561,2.54,4.807h0.14c-0.07-1.18-.14-2.4-0.23-3.659s-0.12-2.5-.12-3.727V930.409h2.82v23.184h-3.07l-8.52-14.6-2.55-4.772h-0.14q0.15,1.77.27,3.587t0.12,3.658v12.123h-2.82V930.409Zm-404.262-60.85v2.447c0,7.047-1.825,11.551-5.884,13.8,4.889,2.252,6.795,7.442,6.795,14.688v5.581c0,10.57-4.723,16.25-13.839,16.25H736.773V853.8H750.53C759.976,853.8,764.038,858.984,764.038,869.559Zm-18.15-5.971V881.7h3.566c3.4,0,5.469-1.766,5.469-7.246v-3.819c0-4.895-1.41-7.047-4.642-7.047h-4.393Zm0,27.9v21.049h5.222c3.067,0,4.723-1.665,4.723-6.755v-5.971c0-6.366-1.74-8.323-5.883-8.323h-4.062Zm33.662-8.813h12.512v9.79H779.55v20.072h15.744v9.79h-24.86V853.8h24.86v9.793H779.55v19.088Zm29.519-9.984v49.636h-8.2V853.8H812.3l9.362,41.022V853.8h8.12v68.533h-9.361Zm24.8,39.846c0.992,0.1,2.152.1,3.148,0.1,2.9,0,5.218-1.271,5.218-6.556V853.8h9.116v51.5c0,13.708-6.214,17.231-13.093,17.231a31.845,31.845,0,0,1-4.389-.2v-9.79Zm53.208,9.79h-9.2L876.3,909.9H865.114l-1.576,12.432h-8.369l9.28-68.533h13.343Zm-20.8-21.735h8.782l-4.393-34.657Zm44.349,1.861,6.214-48.659h12.678v68.533H920.9V873.182L914.6,922.328h-8.62l-6.794-48.46v48.46h-7.955V853.8H903.91ZM936.165,853.8h9.115v68.533h-9.115V853.8Zm23.874,18.9v49.636h-8.2V853.8h11.436l9.362,41.022V853.8h8.12v68.533h-9.361Zm67.141-1.957v8.908c0,10.965-4.47,16.936-13.59,16.936h-4.31v25.749h-9.11V853.8h13.42C1022.71,853.8,1027.18,859.769,1027.18,870.735Zm-17.9-7.147v23.2h4.31c2.9,0,4.48-1.567,4.48-6.461v-10.28c0-4.9-1.58-6.461-4.48-6.461h-4.31Zm50.57,58.74h-9.2l-1.57-12.432h-11.19l-1.57,12.432h-8.37l9.28-68.533h13.34Zm-20.8-21.735h8.78l-4.39-34.657Zm33.74-46.8v52.868c0,4.895,1.83,6.657,4.73,6.657s4.72-1.762,4.72-6.657V853.8h8.62v52.183c0,10.965-4.64,17.231-13.59,17.231s-13.59-6.266-13.59-17.231V853.8h9.11Zm24.3,0h9.11v58.743h15v9.79h-24.11V853.8Zm36.81,0v52.868c0,4.895,1.82,6.657,4.72,6.657s4.72-1.762,4.72-6.657V853.8h8.62v52.183c0,10.965-4.64,17.231-13.59,17.231s-13.59-6.266-13.59-17.231V853.8h9.12Zm36.56-.782c8.86,0,13.42,6.266,13.42,17.231V872.4h-8.62v-2.838c0-4.895-1.66-6.756-4.56-6.756s-4.55,1.861-4.55,6.756c0,14.1,17.81,16.74,17.81,36.319,0,10.969-4.64,17.235-13.59,17.235s-13.59-6.266-13.59-17.235v-4.209h8.62v4.895c0,4.9,1.82,6.66,4.72,6.66s4.73-1.761,4.73-6.66c0-14.1-17.82-16.741-17.82-36.32C1157.03,859.279,1161.59,853.013,1170.46,853.013Z" transform="translate(-735 -853)"/>
</svg>
