<svg id="Isolation_Mode" data-name="Isolation Mode" xmlns="http://www.w3.org/2000/svg" viewBox="0 0 247.16 144.67"><defs><style>.cls-1{fill:#fff;}.cls-2{opacity:0.3;}.cls-3{opacity:0.2;}</style></defs><title>Logo_HalleyInteractive</title><path class="cls-1" d="M219.45,140.09s18.25,10.74,9.56,36.4l-10.87,1.59S238,164.3,217,140.22Z" transform="translate(-10.51 -134.27)"/><circle class="cls-1" cx="217.13" cy="138.01" r="3.74" transform="translate(-46.38 50.49) rotate(-42.91)"/><path class="cls-1" d="M238,203h0a42.48,42.48,0,0,0-5.53-13.13,16.1,16.1,0,0,0-25-18.37,42.74,42.74,0,0,0-34.07,5.29,7.26,7.26,0,0,0-3.79-1c-3.77,0-6.82,2.79-6.82,6.22a5.77,5.77,0,0,0,1,3.24A42.52,42.52,0,0,0,153.7,212.8c-.06.74-.53,6.84-1.31,8.1,0,0,4.85,3.6,2.66,9.09,0,0,2.45,2,4.17,3.83a42.85,42.85,0,0,0,5,7c-.79.09-1.4.57-1.4,1.15s.75,1.18,1.67,1.18a1.94,1.94,0,0,0,1.39-.52,42.93,42.93,0,0,0,9.27,7.2,5.52,5.52,0,0,0,9.29,4,42.48,42.48,0,0,0,7.56,1.48,5.55,5.55,0,0,1-.1-1,5.65,5.65,0,0,1,11.29,0,5.73,5.73,0,0,1-.05.72,42.71,42.71,0,0,0,36-40.12,12.1,12.1,0,0,0,1-5.47C240.1,205.88,239.16,203,238,203Zm-30.36,39.17a5.64,5.64,0,0,1-1.24-1.41c-2.18-3.59.1-9,5.09-12,4.42-2.68,9.47-2.63,12.09-.11A31.58,31.58,0,0,1,207.63,242.22Zm16.83-15.13c-3.24-3.45-9.82-3.61-15.56-.12-6.33,3.84-9.21,10.65-6.45,15.19a7.19,7.19,0,0,0,1.05,1.32,31.49,31.49,0,1,1,21-16.39Z" transform="translate(-10.51 -134.27)"/><g class="cls-2"><path class="cls-1" d="M209.5,185.49a30.28,30.28,0,0,0-34.9,48.31,30,30,0,0,0,25.12,2c2.6-10.28,12-12.79,15.68-13.38a30,30,0,0,0-5.9-36.9Zm-30.56,43.15c.63-5.64,5.82-3.92,5.82-3.92C181.09,223.86,178.93,228.64,178.93,228.64Zm8.69-33.13c0-6.65,7.28-8.8,7.28-8.8-11.21,9.39,1.5,17.13,1.5,17.13C193.48,203.63,187.63,202.17,187.63,195.52Z" transform="translate(-10.51 -134.27)"/></g><path class="cls-1" d="M190.86,235.77c2.69-2.54,2-7.63-1.52-11.37s-8.58-4.72-11.27-2.18-2,7.63,1.52,11.37S188.17,238.31,190.86,235.77Zm-11.3-11.07c2.12-2,6.11-1.23,8.89,1.72s3.33,7,1.2,9-6.11,1.23-8.89-1.72S177.44,226.7,179.56,224.7Z" transform="translate(-10.51 -134.27)"/><path class="cls-1" d="M194.9,183.37a13.4,13.4,0,1,0,13.4,13.4A13.4,13.4,0,0,0,194.9,183.37Zm1.25,22.73a10.58,10.58,0,1,1,10.58-10.58A10.58,10.58,0,0,1,196.15,206.1Z" transform="translate(-10.51 -134.27)"/><g class="cls-3"><path class="cls-1" d="M225.69,172.72c-.37-.29.31,3.92-2.27,6.27,0,0,6.5,6.07,7.44,9.24C230.86,188.23,233.68,179,225.69,172.72Z" transform="translate(-10.51 -134.27)"/></g><circle class="cls-1" cx="153.2" cy="24.88" r="1.36"/><circle class="cls-1" cx="180.35" cy="24.88" r="5.12"/><circle class="cls-1" cx="201.92" cy="20.12" r="2.22"/><circle class="cls-1" cx="190.81" cy="28.74" r="1.73"/><circle class="cls-1" cx="244.57" cy="37.92" r="1.73"/><circle class="cls-1" cx="243.79" cy="50.93" r="3.37"/><circle class="cls-1" cx="125.59" cy="59.68" r="1.57"/><circle class="cls-1" cx="236.53" cy="79.08" r="1.73"/><circle class="cls-1" cx="143.81" cy="121.26" r="0.89"/><circle class="cls-1" cx="161.82" cy="129.4" r="0.89"/><circle class="cls-1" cx="171.85" cy="127.73" r="0.89"/><circle class="cls-1" cx="157.86" cy="120.63" r="0.89"/><circle class="cls-1" cx="141.15" cy="54.37" r="0.89"/><circle class="cls-1" cx="135.15" cy="62.09" r="0.89"/><circle class="cls-1" cx="137.81" cy="66.12" r="0.89"/><circle class="cls-1" cx="211.05" cy="122.45" r="0.89"/><circle class="cls-1" cx="206.52" cy="128.5" r="0.89"/><circle class="cls-1" cx="195.51" cy="124.12" r="0.89"/><circle class="cls-1" cx="218.51" cy="96.89" r="1.64"/><path class="cls-1" d="M129.52,203.25s-21.51,30.28,22.55,9.82c0,0,.21,6.06-1.25,7.94,0,0,6.06,5.43,2.09,9.61l5.43,4.59,3.55,4.59S102.58,232.07,129.52,203.25Z" transform="translate(-10.51 -134.27)"/><path class="cls-1" d="M141.11,216.63V190.88a8.5,8.5,0,0,1,8.5-8.51h11.3c0-.12,0-.24,0-.36,0-4.47,3.9-8.1,8.7-8.1a9.24,9.24,0,0,1,3.7.77,44.55,44.55,0,0,1,5.8-3h-38a10.66,10.66,0,0,0-10.66,10.66v36.84A38.83,38.83,0,0,0,141.11,216.63Z" transform="translate(-10.51 -134.27)"/><path class="cls-1" d="M230.19,258.21A39.38,39.38,0,0,0,236,243.43V233.17a45,45,0,0,1-10.65,13.48v11.49a8.51,8.51,0,0,1-8.51,8.51H149.62a8.51,8.51,0,0,1-8.5-8.51V235.68a53,53,0,0,1-10.65-5.13v36.09a10.66,10.66,0,0,0,10.66,10.66h55.53C215.65,274.8,225.37,265.59,230.19,258.21Z" transform="translate(-10.51 -134.27)"/><path class="cls-1" d="M223.6,276.56c-.53.26-1.07.5-1.63.73h3.41A10.66,10.66,0,0,0,236,266.63V261C233.51,267.71,229.23,273.75,223.6,276.56Z" transform="translate(-10.51 -134.27)"/><path class="cls-1" d="M171.82,260.07c-.17-1-2.22-1.59-4.67-1.37s-4.37,1.19-4.35,2.18Z" transform="translate(-10.51 -134.27)"/><path class="cls-1" d="M168.65,258.8a1.56,1.56,0,0,0-3.08.28Z" transform="translate(-10.51 -134.27)"/><path class="cls-1" d="M163.52,259.87c.13.76,1.79,1.22,3.76,1s3.52-.93,3.52-1.7Z" transform="translate(-10.51 -134.27)"/><path class="cls-1" d="M165.6,259a10.56,10.56,0,0,1,2.91-.31" transform="translate(-10.51 -134.27)"/><path class="cls-1" d="M165.6,259a8.55,8.55,0,0,1,2.91-.31,11.06,11.06,0,0,0-1.46.09A9.88,9.88,0,0,0,165.6,259Z" transform="translate(-10.51 -134.27)"/><path class="cls-1" d="M163.92,260.69s.08-1.34,2.21-1.78" transform="translate(-10.51 -134.27)"/><path class="cls-1" d="M163.92,260.69a1.87,1.87,0,0,1,.8-1.24,3.72,3.72,0,0,1,1.41-.54,3.7,3.7,0,0,0-1.37.59A1.84,1.84,0,0,0,163.92,260.69Z" transform="translate(-10.51 -134.27)"/><path class="cls-1" d="M170.34,260.14s-.25-1.23-2.42-1.41" transform="translate(-10.51 -134.27)"/><path class="cls-1" d="M170.34,260.14a1.8,1.8,0,0,0-1-1,4,4,0,0,0-1.41-.39,4,4,0,0,1,1.44.33A1.83,1.83,0,0,1,170.34,260.14Z" transform="translate(-10.51 -134.27)"/><path class="cls-1" d="M164.68,260.67s2.28-.13,5.14-.44" transform="translate(-10.51 -134.27)"/><polygon class="cls-1" points="154.16 126.41 156.73 126.16 159.3 125.97 156.74 126.22 154.16 126.41"/><path class="cls-1" d="M16.24,190.19l.18,3.64c.11,2,.65,2.59,1.93,2.59h.58v3.27h-2c-2.25,0-3.86-1.27-4-4l-.29-4.88c-.11-1.68-.48-2.19-2-2.19v-3.28c1.53,0,1.89-.51,2-2.18l.29-4.88c.18-2.77,1.79-4,4-4h2v3.28h-.58c-1.28,0-1.82.58-1.93,2.59l-.18,3.64A3.1,3.1,0,0,1,13.87,187,3.1,3.1,0,0,1,16.24,190.19Z" transform="translate(-10.51 -134.27)"/><path class="cls-1" d="M25,199.69H21V174.21h4v10.92h4.55V174.21h4.08v25.48H29.53V188.77H25Z" transform="translate(-10.51 -134.27)"/><path class="cls-1" d="M49.49,199.69h-4l-.69-4.62H39.84l-.69,4.62H35.47l4.08-25.48h5.86Zm-9.14-8.08h3.86l-1.93-12.89Z" transform="translate(-10.51 -134.27)"/><path class="cls-1" d="M51.35,174.21h4v21.84h6.59v3.64H51.35Z" transform="translate(-10.51 -134.27)"/><path class="cls-1" d="M63.7,174.21h4v21.84H74.3v3.64H63.7Z" transform="translate(-10.51 -134.27)"/><path class="cls-1" d="M80.06,184.95h5.5v3.64h-5.5v7.46H87v3.64H76.05V174.21H87v3.64H80.06Z" transform="translate(-10.51 -134.27)"/><path class="cls-1" d="M93.2,191.25l-5.06-17h4.19l3.06,11.62,3.06-11.62h3.82l-5.06,17v8.44h-4Z" transform="translate(-10.51 -134.27)"/><path class="cls-1" d="M10.51,205.22h6v38.11h-6Z" transform="translate(-10.51 -134.27)"/><path class="cls-1" d="M26.2,215.72v27.6H20.81V205.22h7.51L34.48,228V205.22h5.33v38.11H33.66Z" transform="translate(-10.51 -134.27)"/><path class="cls-1" d="M42.38,205.22H60.89v5.44H54.63v32.66h-6V210.66H42.38Z" transform="translate(-10.51 -134.27)"/><path class="cls-1" d="M69.5,221.28h8.22v5.44H69.5v11.16H79.85v5.44H63.51V205.22H79.85v5.44H69.5Z" transform="translate(-10.51 -134.27)"/><path class="cls-1" d="M96.08,243.33c-.33-1-.54-1.58-.54-4.68v-6c0-3.54-1.2-4.85-3.92-4.85H89.55v15.52h-6V205.22h9c6.2,0,8.88,2.89,8.88,8.76v3c0,3.92-1.26,6.47-3.92,7.73,3,1.25,4,4.13,4,8.11v5.88a11.2,11.2,0,0,0,.65,4.63Zm-6.54-32.66v11.71h2.34c2.23,0,3.59-1,3.59-4v-3.76c0-2.72-.93-3.92-3-3.92Z" transform="translate(-10.51 -134.27)"/><path class="cls-1" d="M25.64,276.17H21.29l-.75-5H15.26l-.74,5h-4l4.39-27.42h6.31Zm-9.83-8.7H20l-2.07-13.87Z" transform="translate(-10.51 -134.27)"/><path class="cls-1" d="M40.1,265.95v3.64c0,4.39-2.19,6.89-6.42,6.89s-6.43-2.51-6.43-6.89V255.33c0-4.38,2.19-6.89,6.43-6.89s6.42,2.51,6.42,6.89V258H36v-2.94c0-2-.86-2.7-2.23-2.7s-2.23.74-2.23,2.7v14.8c0,2,.86,2.67,2.23,2.67s2.23-.71,2.23-2.67v-3.92Z" transform="translate(-10.51 -134.27)"/><path class="cls-1" d="M41.48,248.75H54.8v3.92H50.3v23.5H46v-23.5H41.48Z" transform="translate(-10.51 -134.27)"/><path class="cls-1" d="M56.69,248.75H61v27.42H56.69Z" transform="translate(-10.51 -134.27)"/><path class="cls-1" d="M70.64,271.12l3.29-22.37h4l-4.23,27.42H67.23L63,248.75h4.35Z" transform="translate(-10.51 -134.27)"/><path class="cls-1" d="M84.2,260.31h5.92v3.92H84.2v8h7.44v3.92H79.89V248.75H91.64v3.92H84.2Z" transform="translate(-10.51 -134.27)"/><path class="cls-1" d="M96.27,259l-.19-3.92c-.12-2.15-.71-2.79-2.08-2.79h-.63v-3.52h2.19c2.43,0,4.15,1.37,4.35,4.35l.31,5.25c.12,1.8.51,2.35,2.15,2.35v3.52c-1.65,0-2,.55-2.15,2.35l-.31,5.25c-.2,3-1.92,4.35-4.35,4.35H93.37v-3.52H94c1.37,0,2-.63,2.08-2.78l.19-3.92c.08-1.45.55-3,2.55-3.48C96.82,262,96.35,260.43,96.27,259Z" transform="translate(-10.51 -134.27)"/><rect class="cls-1" x="101.68" y="39.58" width="3.45" height="103.23"/><path class="cls-1" d="M158.6,250.6l.13.13.17.14a1.89,1.89,0,0,0,.25.17,2.57,2.57,0,0,0,1.78.31,2.65,2.65,0,0,0,1.1-.51l.24-.22a2.2,2.2,0,0,0,.22-.26,2.5,2.5,0,0,0,.34-.6,2.57,2.57,0,0,0,.16-.69,2.73,2.73,0,0,0,0-.72,2.69,2.69,0,0,0-.24-.69,2.78,2.78,0,0,0-.43-.6,2.9,2.9,0,0,0-.58-.46,2.71,2.71,0,0,0-.68-.26,2.56,2.56,0,0,0-3.07,1.91,2.56,2.56,0,0,0,.24,1.79,1.85,1.85,0,0,0,.16.25,1.35,1.35,0,0,0,.13.18Zm0,0-.12-.14-.13-.18a1.86,1.86,0,0,1-.16-.25,2.5,2.5,0,0,1-.27-.76,2.74,2.74,0,0,1,0-1,2.67,2.67,0,0,1,.53-1.12,2.64,2.64,0,0,1,1.12-.82,2.74,2.74,0,0,1,.73-.17,3,3,0,0,1,.76.05,2.89,2.89,0,0,1,.73.27,3.12,3.12,0,0,1,.63.48,2.93,2.93,0,0,1,.45.65,2.86,2.86,0,0,1,.25.74,3,3,0,0,1,0,.77,2.85,2.85,0,0,1-.2.72,2.56,2.56,0,0,1-.37.62,2.78,2.78,0,0,1-.23.26l-.26.22a2.65,2.65,0,0,1-2.18.45,2.55,2.55,0,0,1-.75-.3l-.25-.17a1.28,1.28,0,0,1-.17-.14Z" transform="translate(-10.51 -134.27)"/><circle class="cls-1" cx="148.14" cy="116.39" r="2.04"/><g class="cls-2"><path class="cls-1" d="M225.17,169.84l2.19,1.25s6.26-13.1-7.83-29.66l-.78.47s7.83,8.72,8.09,18.64A19,19,0,0,1,225.17,169.84Z" transform="translate(-10.51 -134.27)"/></g><path class="cls-1" d="M160.74,184.25c-3.45-1.53-16.52,2.26-18.38,5.64l-.09.17C144.77,187.55,157.25,183.87,160.74,184.25Z" transform="translate(-10.51 -134.27)"/><path class="cls-1" d="M237.12,242.36s-2.51,31.64-41.66,36h1.1s16.6,2.35,26.63-2.66C233.65,270.49,239.47,253,237.12,242.36Z" transform="translate(-10.51 -134.27)"/><path class="cls-1" d="M129.75,226.85" transform="translate(-10.51 -134.27)"/></svg>