<svg fill="#FFFFFF" id="Layer_1" data-name="Layer 1" xmlns="http://www.w3.org/2000/svg" viewBox="0 0 435.84 570.91">
    <title>BP_CrossLogo</title>
    <rect x="31.44" y="500.76" width="531.42" height="21.71" transform="translate(369.17 -196.53) rotate(45)" />
    <rect x="31.44" y="500.76" width="531.42" height="21.71" transform="translate(-354.35 223.7) rotate(-45)" />
    <path d="M79.62,476.49h28.5a63.14,63.14,0,0,1,13.37,1.32,31.28,31.28,0,0,1,10.38,4.09,19.57,19.57,0,0,1,6.72,7.24A22.3,22.3,0,0,1,141,499.88a21.84,21.84,0,0,1-4.09,12.94q-4.09,5.78-12.57,8v.59q10.53,1.61,16.37,7.31t5.85,15.64a27.12,27.12,0,0,1-2.63,12.28,23.94,23.94,0,0,1-7.45,8.77,34.07,34.07,0,0,1-11.55,5.26,58.49,58.49,0,0,1-14.76,1.75H79.62Zm26.31,40.93q12.42,0,17.76-4.24T129,500.9q0-7.89-5.63-11.33t-16.88-3.43H91.75v31.28Zm2.49,45.32q12.42,0,19.29-4.61t6.87-14.4q0-8.91-6.72-13.08t-19.44-4.17H91.75v36.25Z"
        transform="translate(-79.62 -136.26)" />
    <path d="M450.71,476.49h29.38A66.85,66.85,0,0,1,494.56,478a30.33,30.33,0,0,1,11.18,4.75,22.08,22.08,0,0,1,7.16,8.7,35.49,35.49,0,0,1,0,26.46,24.5,24.5,0,0,1-7.24,9.21,32,32,0,0,1-11.18,5.48,53.12,53.12,0,0,1-14.4,1.83H462.84v38H450.71Zm27.92,47.94q12.57,0,18.64-4.75t6.07-15q0-10.38-6.14-14.4t-18.56-4H462.84v38.15Z"
        transform="translate(-79.62 -136.26)" />
    <path d="M217.19,372.39l-8.85,8.85a5.63,5.63,0,0,0,0,7.94l12.6,12.6a5.63,5.63,0,0,0,7.94,0l8.85-8.85Z" transform="translate(-79.62 -136.26)" />
    <rect x="230.21" y="363.65" width="3.46" height="29.05" transform="translate(-279.09 138.52) rotate(-45)" />
    <path d="M246.7,384,373.3,257.36c0-.27-20.54-20.54-20.54-20.54L226.17,363.41Z" transform="translate(-79.62 -136.26)" />
    <path d="M373.31,257.37" transform="translate(-79.62 -136.26)" />
    <path d="M357.79,237.86l23.42-9-9,23.42-14.47-14.47m-5-1.08,20.59,20.59L386.07,224l-33.33,12.74Z" transform="translate(-79.62 -136.26)" />
    <path d="M378.14,238.14l-6.45-6.45s11.81-5.66,11.51-4.76S378.14,238.14,378.14,238.14Z" transform="translate(-79.62 -136.26)" />
    <rect x="369.38" y="249.5" width="4.52" height="4.52" transform="translate(663.66 367.25) rotate(180)" />
    <rect x="364.86" y="244.98" width="4.52" height="4.52" transform="translate(654.62 358.21) rotate(180)" />
    <rect x="360.36" y="240.48" width="4.52" height="4.52" transform="translate(645.63 349.21) rotate(180)" />
    <rect x="355.87" y="235.98" width="4.52" height="4.52" transform="translate(636.63 340.22) rotate(180)" />
    <path d="M355,392.93l8.85,8.85a5.63,5.63,0,0,0,7.94,0l12.6-12.6a5.63,5.63,0,0,0,0-7.94l-8.85-8.85Z" transform="translate(-79.62 -136.26)" />
    <rect x="346.3" y="376.44" width="29.05" height="3.46" transform="translate(-241.35 229.64) rotate(-45)" />
    <rect x="281.86" y="299.19" width="29.05" height="29.08" transform="translate(-214.66 165.21) rotate(-45)" />
    <path d="M289.69,286.51,240,236.82c-.27,0-20.54,20.54-20.54,20.54L269.16,307Z" transform="translate(-79.62 -136.26)" />
    <rect x="320.32" y="321.79" width="29.05" height="60.79" transform="translate(-230.58 203.66) rotate(-45)" />
    <path d="M240,236.8" transform="translate(-79.62 -136.26)" />
    <path d="M220.51,252.33l-9-23.42,23.42,9-14.47,14.47m-1.08,5L240,236.79,206.7,224l12.74,33.33Z" transform="translate(-79.62 -136.26)" />
    <path d="M220.79,232l-6.45,6.45s-5.66-11.81-4.76-11.51S220.79,232,220.79,232Z" transform="translate(-79.62 -136.26)" />
    <rect x="232.15" y="236.22" width="4.52" height="4.52" transform="translate(393.26 -132.19) rotate(90)" />
    <rect x="227.63" y="240.74" width="4.52" height="4.52" transform="translate(393.26 -123.15) rotate(90)" />
    <rect x="223.13" y="245.23" width="4.52" height="4.52" transform="translate(393.26 -114.15) rotate(90)" />
    <rect x="218.63" y="249.73" width="4.52" height="4.52" transform="translate(393.26 -105.16) rotate(90)" />
    <polygon points="177.7 101.26 218 60.95 258.94 101.89 260.81 100.02 218 57.21 175.82 99.39 177.7 101.26" />
    <polygon points="289.28 212.84 331.46 170.66 297.21 136.42 295.34 138.29 327.71 170.66 287.4 210.97 289.28 212.84" />
    <polygon points="251 247.37 218 280.37 185.63 248 183.76 249.87 218 284.12 252.88 249.24 251 247.37" />
    <polygon points="149.23 211.6 108.29 170.66 141.29 137.66 139.42 135.79 104.55 170.66 147.36 213.47 149.23 211.6" />
    <polygon points="279.53 203.72 312.59 170.66 287.47 145.54 283.52 149.49 304.69 170.66 275.58 199.77 279.53 203.72" />
    <polygon points="188.95 113.14 218.06 84.03 247.12 113.08 251.07 109.14 218.06 76.13 185 109.19 188.95 113.14" />
    <polygon points="239.18 236.17 218.06 257.3 196.88 236.12 192.94 240.07 218.06 265.19 243.13 240.12 239.18 236.17" />
    <polygon points="160.48 199.72 131.42 170.66 152.55 149.54 148.6 145.59 123.53 170.66 156.53 203.67 160.48 199.72" />
    <path d="M389.29,223.76" transform="translate(-79.62 -136.26)" />
    <path d="M275,218.68l1.68-1.68a30.9,30.9,0,1,1,42.82-1l1.68,1.68a33.29,33.29,0,1,0-46.18,1Z" transform="translate(-79.62 -136.26)" />
    <rect x="254.72" y="54.14" width="17.99" height="3.28" />
    <rect x="161.15" y="54.14" width="17.99" height="3.28" />
    <rect x="261.83" y="149.96" width="3.28" height="17.99" transform="translate(-114.85 96.6) rotate(-45)" />
    <rect x="320.64" y="157.32" width="17.99" height="3.28" transform="translate(-95.48 143.39) rotate(-45)" />
    <rect x="215.29" width="3.28" height="17.99" />
</svg>