<svg id="Layer_1" data-name="Layer 1" xmlns="http://www.w3.org/2000/svg" viewBox="0 0 396.03 148"><defs><style>.cls-1{fill:#fff;}</style></defs><title>Paladin_Logo_paladinArthur</title><path class="cls-1" d="M177.55,159.12a8.6,8.6,0,0,1-4.74-1.74c-1.46-1.07-2.81-2.2-3.24-3.34s-.72-4.12-.87-8.82V127.58c.22-3.63.33-8.25.33-10.06,3.77.25,7.13.37,10,.37,12,0,16.88-1.88,22.85-5.57s9-9.32,9-16.69A20.15,20.15,0,0,0,204,80.09c-3.68-3.32-9.22-5.31-18.11-6L148.58,74c-.91.11-1.39.48-1.39,1.13s1.36,1.41,4.27,1.93c2.51.45,4.23,1.56,5.09,3.31a13.91,13.91,0,0,1,1,4.18v62.54c0,.13,0,.27,0,.39-.25,4.39-.93,7.28-2,8.6s-3.06,2.3-5.83,2.92c-1.68.36-2.5.89-2.5,1.64a1,1,0,0,0,.54,1c.21.1,1.26.24,7.84.24l17.37.07c3.93,0,6.12-.06,6.71-.16a1.09,1.09,0,0,0,1-1.17C180.55,159.73,179.57,159.26,177.55,159.12ZM169,77.07c1.55,0,14.42-.51,18.17.53a18.06,18.06,0,0,1,3,1.12,12.89,12.89,0,0,1,3.18,2.17,16.55,16.55,0,0,1,3,3.8c1.6,2.81,1.86,5.73,1.86,9,0,3.71-.17,7.51-1.9,11.29a18,18,0,0,1-13.42,10.13c-1.13.21-13.84.53-13.84.11,0-.22-.07-4.39-.07-4.39l-.12-15.44Z" transform="translate(-63.29 -19.86)"/><path class="cls-1" d="M250.29,158.8l-1-.07-1.22-.11h-.26l-.76-.06-.36,0-.63-.12a4.57,4.57,0,0,1-2.58-1.28,6.93,6.93,0,0,1-1.3-3.26c-.29-1.51-.29-28.24-.29-28.51,0-4.84-.37-8.16-1.11-9.87s-2.56-3.26-5.44-4.59-6.73-2-11.52-2c-6,0-10.86,1.14-14.32,3.38s-5.24,5-5.24,8a4.89,4.89,0,0,0,1.7,4,5.12,5.12,0,0,0,3.11,1.36c2.59,0,4.3-1.91,5.05-5.7.7-3.37,1.71-5.66,3-6.82s3.27-1.67,5.86-1.67a9.25,9.25,0,0,1,7.34,3c1.72,2,2.59,4.79,2.59,8.36a7.65,7.65,0,0,1-2,5.44c-1.31,1.39-5.32,3.18-11.93,5.3a66.72,66.72,0,0,0-9.79,3.83,13.84,13.84,0,0,0-5,5,14,14,0,0,0-2.17,7.52,11.26,11.26,0,0,0,3.63,8.7c2.41,2.19,5.77,3.3,10,3.3a21.25,21.25,0,0,0,9.68-2.16,20.18,20.18,0,0,0,7.07-6.11l.28-.36L233,153l.39,1.8a10.33,10.33,0,0,0,3.49,5.37,8,8,0,0,0,3.91,1.38h6.14l3.79-.08c1.08,0,1.7-.48,1.7-1.32S251.68,158.93,250.29,158.8Zm-18.88-8.5a13.06,13.06,0,0,1-4.67,5.43,11.89,11.89,0,0,1-6.73,2.13,7.38,7.38,0,0,1-5.75-2.62,9.43,9.43,0,0,1-2.31-6.41,10.14,10.14,0,0,1,2.83-7.18c1.89-2,5.06-4,9.39-6.21s7-4,8.33-5.58c.27,3.91.42,7.49.42,10.62C232.92,144.79,232.41,148.1,231.4,150.3Z" transform="translate(-63.29 -19.86)"/><path class="cls-1" d="M269.73,159.14l-1.07-.07c-1.94-.11-4.6-.27-5.78-1.62a6.76,6.76,0,0,1-1.3-3.21,24.48,24.48,0,0,1-.43-4.76l-.26-18.87L261,75.85l-14.47.34c-2.15,0-3.19.39-3.19,1.21s.83,1.11,2.54,1.34c2.53.28,4.15,1.14,4.83,2.55.49,1,1.14,21.27,1.17,28.91l.19,35.63v1.64a26.14,26.14,0,0,0,.7,7.7,10.22,10.22,0,0,0,3.5,5.29,8.16,8.16,0,0,0,3.93,1.36c1.93.07,5.17,0,9.64-.08h.33c1.08,0,1.71-.47,1.71-1.31S271.13,159.27,269.73,159.14Z" transform="translate(-63.29 -19.86)"/><path class="cls-1" d="M457,159.36c-2.08-.57-3.46-1.35-4.08-2.29s-.94-3.58-.94-7.41l.37-21.05c0-6.24-.73-10.73-2.17-13.34a12.11,12.11,0,0,0-6.19-5.55,22.2,22.2,0,0,0-8.27-1.6,18.7,18.7,0,0,0-10.34,3.09,29.46,29.46,0,0,0-8.43,8.94c0-5.64-.14-9.75-.14-12.15l0-.08-10.2.2-5.07-.06c-1.33,0-2,.4-2,1.19s.82,1.3,2.53,1.69a6.28,6.28,0,0,1,4.12,3.26c1,1.77,1.49,6.38,1.49,13.71,0,7.83-.11,14.51-.34,19.84s-.67,8.38-1.31,9.29a5.78,5.78,0,0,1-3.76,1.93c-2.06.39-3.07,1-3.07,1.75s.93,1.12,2.87,1.12l5-.13c6.49,0,10.37,0,11.51.13l3.24.24c1,0,1.5-.33,1.5-1s-.5-1.23-1.48-1.32c-2.86-.33-4.66-1.24-5.36-2.72s-1.09-5.07-1.09-10.61c0-12.22,1.63-21.07,4.83-26.3s7.26-7.86,12.08-7.86a9.94,9.94,0,0,1,8.16,4.32c2.19,2.89,3.29,8.77,3.29,17.49,0,3.2-.1,7.4-.28,12.49s-.43,8.31-.72,9.19a4.23,4.23,0,0,1-1.46,2.09,13,13,0,0,1-4.46,1.54c-.89.18-1.34.55-1.34,1.12,0,.79.81,1.18,2.43,1.18,3.84-.29,7.49-.43,10.85-.43a48.17,48.17,0,0,1,8.47.55l.9.06c1,0,1.18-.57,1.18-1.06S458.58,159.8,457,159.36Z" transform="translate(-63.29 -19.86)"/><path class="cls-1" d="M405,157.5a1.59,1.59,0,0,0,1-.6.93.93,0,0,0,.08-.77c-.22-.86-1.48-1-3.84-.6a7.59,7.59,0,0,1-4.54-.18c-1.12-.51-2.05-2.14-2.78-4.87l-11.27-42.1a6.08,6.08,0,0,0,3-.14,5,5,0,0,0,3-2.77,5.88,5.88,0,0,0,.46-4.4h0a5.37,5.37,0,0,0-2.64-3.39,5.56,5.56,0,0,0-4.31-.33,5,5,0,0,0-3.35,2.87,6.31,6.31,0,0,0-.26,4.33,5.12,5.12,0,0,0,2.78,3.42,5.87,5.87,0,0,0,1.13.38l-.12,0a12.35,12.35,0,0,0-1.52.6l-10.09,4.14a11.82,11.82,0,0,0-2.83,1.16,1,1,0,0,0-.3,1q.28,1,1.85.64c2.88-.62,5-.48,6.29.42s2.81,4.58,4.51,10.92l6,24c.84,3.11,1,5.1.62,5.9s-1.72,1.62-3.86,2.42-3.27,1.63-3.06,2.4a1.08,1.08,0,0,0,.51.7,1.89,1.89,0,0,0,1.37.06l1.2-.42a86.24,86.24,0,0,1,10.57-3.07,67.2,67.2,0,0,1,9.28-1.61Z" transform="translate(-63.29 -19.86)"/><path class="cls-1" d="M372.15,159.37c-4-.7-6.75-2.06-6.75-7.52l.5-39.72-.06-36.28-13.89.34c-2.06,0-3.06.39-3.06,1.21s.79,1.11,2.43,1.34c2.42.28,4,1.14,4.64,2.55.47,1,1,18.25,1,22,0,4.16-.14,8.69-.39,13.45a16.46,16.46,0,0,0-6-6.43,17.94,17.94,0,0,0-9.14-2.24c-7,0-12.93,2.88-17.71,8.56a30.44,30.44,0,0,0-7.2,20.16c0,7.93,2.59,14.31,7.71,19s10.22,7,15.2,7a16.17,16.17,0,0,0,9.65-3.15,27.32,27.32,0,0,0,7.49-9c0,.8-.17,5.6-.17,5.6l.08,2.2a3.49,3.49,0,0,0,3.78,3.48c3.8,0,4.13.07,4.13.07,5.1,0,8.6-.06,9.09-.19a1,1,0,0,0,.81-1.05C374.25,160.11,373.54,159.63,372.15,159.37Zm-20.28-6.44c-3.27,3.73-6.71,5.62-10.21,5.62s-6.79-1.8-9.77-5.34-4.51-9.52-4.51-17.75,1.28-14.36,3.8-18.42a12.48,12.48,0,0,1,11.3-6.1c4.78,0,8.4,1.76,10.77,5.23s3.58,8.83,3.58,15.86C356.82,142.17,355.15,149.2,351.87,152.94Z" transform="translate(-63.29 -19.86)"/><path class="cls-1" d="M318.75,159l-1-.07-1.22-.11h-.26l-.76-.06-.36,0-.64-.12a4.6,4.6,0,0,1-2.58-1.28,7,7,0,0,1-1.3-3.26c-.29-1.51-.29-28.24-.29-28.51,0-4.85-.38-8.16-1.11-9.88s-2.56-3.26-5.44-4.58-6.73-2-11.52-2c-6,0-10.86,1.14-14.32,3.39s-5.25,5-5.25,8a4.91,4.91,0,0,0,1.7,4,5.14,5.14,0,0,0,3.11,1.36c2.6,0,4.3-1.92,5.06-5.7.7-3.36,1.71-5.66,3-6.82s3.27-1.67,5.86-1.67a9.25,9.25,0,0,1,7.34,3c1.72,2,2.59,4.79,2.59,8.35a7.65,7.65,0,0,1-2,5.44c-1.31,1.39-5.32,3.18-11.94,5.3a66.89,66.89,0,0,0-9.79,3.83,15,15,0,0,0-7.15,12.53,11.26,11.26,0,0,0,3.63,8.7c2.41,2.19,5.77,3.31,10,3.31a21.27,21.27,0,0,0,9.68-2.17,20.21,20.21,0,0,0,7.07-6.11l.28-.36.24-.32.38,1.8a10.38,10.38,0,0,0,3.49,5.37,8,8,0,0,0,3.91,1.38h6.13l3.79-.09c1.08,0,1.7-.48,1.7-1.32S320.14,159.18,318.75,159Zm-18.88-8.5a13.06,13.06,0,0,1-4.67,5.43,11.86,11.86,0,0,1-6.74,2.13,7.38,7.38,0,0,1-5.75-2.62,9.43,9.43,0,0,1-2.31-6.4,10.14,10.14,0,0,1,2.84-7.18c1.9-2,5.05-4.05,9.39-6.22s7-4,8.33-5.58c.28,3.91.42,7.48.42,10.62C301.38,145,300.87,148.35,299.87,150.55Z" transform="translate(-63.29 -19.86)"/><path class="cls-1" d="M119,127l-.89-1.93L114.66,95.7s-.23-5.18-10.23-9.48l-1.8-4.33s10.64-3.21,15.07-7.4c0,0,.14-.68.94.38s5,3.87,7.72-.23,4.45-10.91-2.55-9.22l1.29-2,3.35-3.34a1.37,1.37,0,0,0,.3-.45l3.6-8.72a.19.19,0,0,0-.25-.24l-2,.89a.16.16,0,0,1-.21-.19l1.9-6.25a.35.35,0,0,0-.28-.44l-3.07-.51a.36.36,0,0,1-.3-.4c.18-1.28.79-5.77.87-7.79a.52.52,0,0,0-.43-.53l-.87-.16a.24.24,0,0,1-.2-.26l.32-3.59a.38.38,0,0,0-.35-.41l-7-.57a.33.33,0,0,1-.3-.32l0-1.37a.39.39,0,0,0-.28-.36l-2.63-.72a1.08,1.08,0,0,1-.68-.57l-1.15-2.38a.35.35,0,0,0-.43-.18l-5.16,1.85a.61.61,0,0,1-.59-.1l-.76-.62L105.24,22a.38.38,0,0,0-.48-.07L101.27,24a.35.35,0,0,1-.4,0l-5-4.06a.43.43,0,0,0-.59,0l-4.91,5.47a.64.64,0,0,1-.69.17L85.05,24a.38.38,0,0,0-.46.17L82.07,28.7a.41.41,0,0,1-.54.17l-4-2a.2.2,0,0,0-.29.18l0,4.93a.58.58,0,0,1-.45.56l-1.32.3a.55.55,0,0,0-.42.41l-1.87,7.57a5.21,5.21,0,0,0-.06,2.2l.37,2L72,43.84a.39.39,0,0,0-.64.32,94.75,94.75,0,0,0,1,10.75l-1,3.31s-3.66-3.66-4.78,2.94A9.31,9.31,0,0,0,69.66,69c.19,0,1.47,1.41,3.84-.87,0,0,.46.14.66,1,0,0,3.81,7,13.94,12.16,0,0,.91.25.25,2.09s-.91,2.59-.91,2.59l-6.91,4.44s-3,1.91-4.09,9.38-2.59,9.25-2.62,14.81-.25,13.84.19,15.5c0,0-1.07,1.31-.25,2l2.63,2.11-.18.26-4.33-2.92h-1l-1.81,2.93a.21.21,0,0,0,.07.29l5.19,3.15-4.74,8.55.14.53-.44.17-6,10.93,0,4.28.31.16,1.79-1.29s1.39-2.28,1.39-2.18-.8,1.74-.8,1.74l1.22-.7L75,146.15l-.15-.3.3,0,3.07-5.52,4.81,3,.33-.44,0,1.63L83,146.24a2.34,2.34,0,0,0-.05.77,20.32,20.32,0,0,1-.28,5.82,7.17,7.17,0,0,0-.18,1.25,10,10,0,0,1-.41,2.56.84.84,0,0,1-.4.48l-.44.23a1.12,1.12,0,0,0-.58.73,12.07,12.07,0,0,0-.46,2.79,8,8,0,0,0,1,.7s-2,1-1.54,4.45c0,0,.63,1.86,6.86,1.68a11.49,11.49,0,0,0,4.56-2.17c2.45-1.82,3.08-1.82,3.08-1.82a12.1,12.1,0,0,0,1.14-1l.12-.74s.48-.16.38.57,1.14,1.06,1.14,1.06a2,2,0,0,0,.52,1.55s-.24,1.85,2.75,2.7c0,0,4.52.23,7.5-1.07l.67-1.55-1-3.66a1.24,1.24,0,0,0,.91-1.4l-.89-2.39-1.3-1.07,1.1-2.38a2.67,2.67,0,0,0,.24-1.23l-.12-3s6.24,5.62,17.24-6.13S134.73,121,119,127ZM95.47,150.14l-.55-6.55a.23.23,0,0,1,.23-.25h1.21a.14.14,0,0,1,.14.16Z" transform="translate(-63.29 -19.86)"/></svg>