<svg id="Isolation_Mode" data-name="Isolation Mode" xmlns="http://www.w3.org/2000/svg" viewBox="0 0 221.42 21.31"><defs><style>.cls-1{fill:#e2a341;}</style></defs><title>CrossPencils_FULL</title><path class="cls-1" d="M117.43,333.31a6.38,6.38,0,0,0-2.4-2.4.12.12,0,0,1,0-.21,6.89,6.89,0,0,0,2.41-2.42.12.12,0,0,1,.21,0,6.8,6.8,0,0,0,2.4,2.4.12.12,0,0,1,0,.21,5.4,5.4,0,0,0-2.4,2.41A.12.12,0,0,1,117.43,333.31Z" transform="translate(-29.15 -320.21)"/><path class="cls-1" d="M109.81,330.27" transform="translate(-29.15 -320.21)"/><rect class="cls-1" y="10.35" width="82.28" height="0.36"/><path class="cls-1" d="M162.29,328.29a6.38,6.38,0,0,0,2.4,2.4.12.12,0,0,1,0,.21,6.89,6.89,0,0,0-2.41,2.42.12.12,0,0,1-.21,0,6.8,6.8,0,0,0-2.4-2.4.12.12,0,0,1,0-.21,5.4,5.4,0,0,0,2.4-2.41A.12.12,0,0,1,162.29,328.29Z" transform="translate(-29.15 -320.21)"/><path class="cls-1" d="M169.91,331.33" transform="translate(-29.15 -320.21)"/><rect class="cls-1" x="168.29" y="330.69" width="82.28" height="0.36" transform="translate(389.7 341.52) rotate(180)"/><path class="cls-1" d="M130.24,324.55l16.92,16.92s.75.37,2-.92.92-2,.92-2l-16.92-16.92-4.29-1.42Zm18.91,15.31-.61.61a.24.24,0,0,1-.34,0h0l-16.38-16.32a.11.11,0,0,1,0-.15l.78-.78a.1.1,0,0,1,.14,0h0l16.41,16.34a.21.21,0,0,1,0,.3Zm-16-17.79,16.18,16.14.3.3a.26.26,0,0,1,.07.26l-.12.4a.21.21,0,0,1-.35.09L132.89,323a.13.13,0,0,1,0-.13l.23-.79a.08.08,0,0,1,.07-.06Zm-2.47,2.37.83-.22a.11.11,0,0,1,.11,0l16.22,16.34a.21.21,0,0,1-.1.35l-.41.1a.26.26,0,0,1-.25-.07l-.31-.31-16.12-16.12a.07.07,0,0,1,.06-.08h0Zm.41-3.3c.08.08-.16.44-.52.81s-.73.6-.81.52h0l-.63-1.93,1.93.63Z" transform="translate(-29.15 -320.21)"/><path class="cls-1" d="M139.13,333.78l-6.88,6.88-.31.31a.26.26,0,0,1-.25.07l-.41-.1a.21.21,0,0,1-.1-.35l7.35-7.38-.18-.18-7.51,7.48a.24.24,0,0,1-.34,0h0l-.61-.61a.21.21,0,0,1,0-.3h0l7.48-7.45-.18-.17-7.35,7.3a.21.21,0,0,1-.35-.09l-.12-.4a.26.26,0,0,1,.07-.26l.3-.3,6.91-6.91-.25-.26-7.49,7.49s-.37.75.92,2,2,.92,2,.92l7.5-7.46Z" transform="translate(-29.15 -320.21)"/><path class="cls-1" d="M145.84,321.58l-6.08,6.08v.16l.16.18,5.94-5.94a.08.08,0,0,1,.11,0l0,0,.23.79a.13.13,0,0,1,0,.13l-5.68,5.63.18.16,5.61-5.56a.1.1,0,0,1,.14,0h0l.78.78a.11.11,0,0,1,0,.15l-5.59,5.56.17.15,5.58-5.62a.11.11,0,0,1,.11,0l.83.22a.07.07,0,0,1,0,.1h0l-5.9,5.9.24.21,6.11-6.11,1.37-4.35Zm3.41.89c-.08.08-.44-.16-.81-.52s-.6-.73-.52-.81h0l1.93-.63-.63,1.93Z" transform="translate(-29.15 -320.21)"/><path class="cls-1" d="M125.12,328.76a.91.91,0,0,0,1-.73h.62v5.83h-.92v-4.45h-.71Z" transform="translate(-29.15 -320.21)"/><path class="cls-1" d="M130.54,332.41c0,1-.45,1.52-1.4,1.52s-1.37-.53-1.37-1.47v-.15h.87v.21c0,.42.18.57.47.57s.51-.16.51-.72v-1.06a.87.87,0,0,1-.85.52c-.67,0-1-.47-1-1.33v-1.07a1.39,1.39,0,0,1,2.78,0h0Zm-.92-2v-1c0-.42-.18-.57-.47-.57s-.47.15-.47.57v1c0,.42.18.57.47.57s.48-.15.48-.56Z" transform="translate(-29.15 -320.21)"/><path class="cls-1" d="M149.25,333.92a1.31,1.31,0,0,1-1.43-1.47V332a1.28,1.28,0,0,1,.57-1.22,1.21,1.21,0,0,1-.57-1.17v-.18a1.43,1.43,0,0,1,2.86,0v.18a1.22,1.22,0,0,1-.57,1.17,1.28,1.28,0,0,1,.57,1.22v.46a1.31,1.31,0,0,1-1.43,1.47Zm-.52-4.14c0,.47.22.62.52.62s.52-.15.52-.62v-.32c0-.52-.22-.67-.52-.67s-.52.14-.52.67Zm.52,3.31c.29,0,.51-.14.52-.66v-.54c0-.46-.19-.66-.52-.66s-.52.2-.52.66v.54c0,.52.23.66.52.66Z" transform="translate(-29.15 -320.21)"/><path class="cls-1" d="M153.93,328v.8l-1.35,5h-.92l1.34-5h-1.82V328Z" transform="translate(-29.15 -320.21)"/></svg>