<svg id="Isolation_Mode" data-name="Isolation Mode" xmlns="http://www.w3.org/2000/svg" viewBox="0 0 221.42 21.32"><defs><style>.cls-1{fill:#e2a341;}</style></defs><title>CrossPencils_Dashed</title><path class="cls-1" d="M117.43,333.31a6.38,6.38,0,0,0-2.4-2.4.12.12,0,0,1,0-.21,6.89,6.89,0,0,0,2.41-2.42.12.12,0,0,1,.21,0,6.8,6.8,0,0,0,2.4,2.4.12.12,0,0,1,0,.21,5.4,5.4,0,0,0-2.4,2.41A.12.12,0,0,1,117.43,333.31Z" transform="translate(-29.15 -319.99)"/><path class="cls-1" d="M109.81,330.27" transform="translate(-29.15 -319.99)"/><rect class="cls-1" y="10.57" width="82.28" height="0.36"/><path class="cls-1" d="M162.29,328.29a6.38,6.38,0,0,0,2.4,2.4.12.12,0,0,1,0,.21,6.89,6.89,0,0,0-2.41,2.42.12.12,0,0,1-.21,0,6.8,6.8,0,0,0-2.4-2.4.12.12,0,0,1,0-.21,5.4,5.4,0,0,0,2.4-2.41A.12.12,0,0,1,162.29,328.29Z" transform="translate(-29.15 -319.99)"/><path class="cls-1" d="M169.91,331.33" transform="translate(-29.15 -319.99)"/><rect class="cls-1" x="168.29" y="330.69" width="82.28" height="0.36" transform="translate(389.7 341.74) rotate(180)"/><path class="cls-1" d="M130,324.34l16.92,16.92s.75.37,2-.92.92-2,.92-2L133,321.37,128.62,320Zm18.91,15.31-.61.61a.24.24,0,0,1-.34,0l-16.38-16.32a.11.11,0,0,1,0-.15l.78-.78a.1.1,0,0,1,.15,0l16.41,16.34A.21.21,0,0,1,148.91,339.65Zm-16-17.79L149.05,338l.3.3a.26.26,0,0,1,.07.26l-.12.4a.21.21,0,0,1-.35.09l-16.34-16.21a.13.13,0,0,1,0-.13l.23-.79A.08.08,0,0,1,132.95,321.86Zm-2.47,2.37.83-.22a.11.11,0,0,1,.11,0l16.22,16.34a.21.21,0,0,1-.1.35l-.41.1a.26.26,0,0,1-.25-.07l-.31-.31-16.12-16.12A.07.07,0,0,1,130.47,324.22Zm.41-3.3c.08.08-.16.44-.52.81s-.73.6-.81.52a.06.06,0,0,1,0,0l-.63-1.93,1.93.63Z" transform="translate(-29.15 -319.99)"/><path class="cls-1" d="M138.89,333.57,132,340.46l-.31.31a.26.26,0,0,1-.25.07l-.41-.1a.21.21,0,0,1-.1-.35l7.36-7.42-.18-.18-7.51,7.48a.24.24,0,0,1-.34,0l-.61-.61a.21.21,0,0,1,0-.3l7.48-7.45-.18-.17-7.35,7.3a.21.21,0,0,1-.35-.09l-.12-.4a.26.26,0,0,1,.07-.26l.3-.3,6.91-6.91-.25-.26-7.49,7.49s-.37.75.92,2,2,.92,2,.92l7.46-7.46Z" transform="translate(-29.15 -319.99)"/><path class="cls-1" d="M145.6,321.37l-6.08,6.08c0,.05,0,.11,0,.16l.16.18,5.94-5.94a.08.08,0,0,1,.13,0l.23.79a.13.13,0,0,1,0,.13l-5.68,5.63.18.16,5.62-5.6a.1.1,0,0,1,.15,0l.78.78a.11.11,0,0,1,0,.15l-5.59,5.56.17.15,5.58-5.62a.11.11,0,0,1,.11,0l.83.22a.07.07,0,0,1,0,.11l-5.9,5.9.24.21,6.11-6.11,1.37-4.35Zm3.41.89c-.08.08-.44-.16-.81-.52s-.6-.73-.52-.81h0l1.93-.63-.63,1.93A.06.06,0,0,1,149,322.26Z" transform="translate(-29.15 -319.99)"/></svg>