<svg id="Layer_1" data-name="Layer 1" xmlns="http://www.w3.org/2000/svg" viewBox="0 0 156.1 155.37"><title>CrossPencils</title><path d="M31.43,46l85,85s3.78,1.86,10.29-4.64,4.62-10.26,4.62-10.26l-85-85L24.52,24.15Zm94.95,76.89-3,3a1.21,1.21,0,0,1-1.71,0L39.34,44a0.54,0.54,0,0,1,0-.76l3.9-3.9a0.52,0.52,0,0,1,.73,0l82.39,82.08A1.06,1.06,0,0,1,126.37,122.87ZM46.22,33.52l80.89,80.89,1.53,1.53a1.32,1.32,0,0,1,.33,1.31l-0.59,2a1.06,1.06,0,0,1-1.76.45l-82-81.41a0.65,0.65,0,0,1-.17-0.65l1.14-4A0.4,0.4,0,0,1,46.22,33.52ZM33.81,45.4L38,44.29a0.58,0.58,0,0,1,.56.15L120,126.52a1.06,1.06,0,0,1-.49,1.77l-2.08.53a1.33,1.33,0,0,1-1.27-.35l-1.55-1.55-81-81A0.34,0.34,0,0,1,33.81,45.4Zm2.08-16.55c0.39,0.39-.79,2.2-2.63,4s-3.66,3-4,2.63a0.3,0.3,0,0,1-.07-0.22L26,25.6l9.71,3.18A0.3,0.3,0,0,1,35.89,28.85Z"/><path d="M76.06,92.35L41.49,126.92l-1.55,1.55a1.33,1.33,0,0,1-1.27.35l-2.08-.53a1.06,1.06,0,0,1-.49-1.77l37-37.25-0.89-.91L34.48,125.92a1.21,1.21,0,0,1-1.71,0l-3-3a1.06,1.06,0,0,1,0-1.5L67.3,83.95q-0.46-.43-0.91-0.87L29.48,119.71a1.06,1.06,0,0,1-1.76-.45l-0.59-2a1.32,1.32,0,0,1,.33-1.31L29,114.42,63.67,79.73l-1.26-1.3L24.77,116.07s-1.88,3.76,4.62,10.26S39.68,131,39.68,131L77.15,93.51Z"/><path d="M109.77,31.07L79.21,61.63c0,0.26,0,.53,0,0.79l0.81,0.92,29.81-29.81a0.4,0.4,0,0,1,.66.17l1.14,4a0.65,0.65,0,0,1-.17.65L83,66.59l0.89,0.83,28.24-28.13a0.52,0.52,0,0,1,.73,0l3.9,3.9a0.54,0.54,0,0,1,0,.76L88.71,71.9l0.84,0.77,28-28.23a0.58,0.58,0,0,1,.56-0.15l4.17,1.12a0.34,0.34,0,0,1,.15.56L92.81,75.6l1.2,1L124.68,46l6.9-21.83Zm17.13,4.46c-0.39.39-2.2-.79-4-2.63s-3-3.66-2.63-4a0.3,0.3,0,0,1,.22-0.07l9.71-3.18L127,35.31A0.3,0.3,0,0,1,126.89,35.54Z"/></svg>