<svg id="Layer_1" data-name="Layer 1" xmlns="http://www.w3.org/2000/svg" viewBox="0 0 156.1 155.37"><title>Untitled-1</title><path d="M145.89,66.69q-5-30.07-30.28-47.06A65.73,65.73,0,0,0,85.2,8.77,68.64,68.64,0,0,0,14,52.26,64.79,64.79,0,0,0,9.67,71.34a8.08,8.08,0,0,1-.25,1.16v9.12c0.26,1.94.48,3.88,0.79,5.81q4.55,28.09,27.4,45.07a67.15,67.15,0,0,0,30.87,12.56c1.67,0.24,3.34.42,5,.64h9.12c1.93-.26,3.88-0.48,5.8-0.79q28.09-4.55,45.07-27.4A67.14,67.14,0,0,0,146,86.63c0.24-1.67.43-3.35,0.64-5V72.5C146.42,70.56,146.21,68.62,145.89,66.69ZM118.5,52.5a0.78,0.78,0,0,0-.18.14,37.64,37.64,0,0,1-7.19,7.49,1.45,1.45,0,0,0-.46.92c-0.29,3.16-.3,6.37-0.86,9.49A48.25,48.25,0,0,1,95.05,98,44.17,44.17,0,0,1,73,109.29c-1.53.3-3.06,0.53-4.6,0.79H57.89c-0.6-.1-1.19-0.23-1.79-0.3a47.05,47.05,0,0,1-17.82-6.34c-0.23-.13-0.45-0.3-0.67-0.45l0-.27a34,34,0,0,0,24.14-6.81,18.15,18.15,0,0,1-9.61-3.52,15.92,15.92,0,0,1-5.72-8.06c1.25,0,2.36,0,3.46,0s2.21-.16,3.32-0.24l0-.27a16.38,16.38,0,0,1-9.2-6,15.49,15.49,0,0,1-3.45-10.51,16.34,16.34,0,0,0,7,1.93A17.16,17.16,0,0,1,42.9,47C52,57.53,63.3,63.57,77.25,64.47c-0.06-.53-0.11-0.92-0.15-1.31-0.6-5.93,1-11,5.62-15s10.12-5,16.05-3.37a14.38,14.38,0,0,1,6.07,3.49,2.33,2.33,0,0,0,2.66.62l7.4-2.83c0.5-.19,1-0.42,1.67-0.71A20,20,0,0,1,110,54.21,35,35,0,0,0,118.5,52V52.5Z"/></svg>