<svg id="Layer_1" data-name="Layer 1" xmlns="http://www.w3.org/2000/svg" viewBox="0 0 137.27 137.3"><title>Social_Mail</title><path d="M75.6,68.08H74.52a10.22,10.22,0,0,0,1,20.4h1.08a10.29,10.29,0,0,0,7-3.72A9.69,9.69,0,0,0,85.8,77.2,10.35,10.35,0,0,0,75.6,68.08Z" transform="translate(-9.97 -9.63)"/><path d="M146.45,67.94q-5-30.06-30.28-47.06A65.73,65.73,0,0,0,85.75,10,68.64,68.64,0,0,0,14.55,53.5a64.79,64.79,0,0,0-4.33,19.07A8.08,8.08,0,0,1,10,73.73v9.12c.26,1.94.48,3.88.8,5.81a68,68,0,0,0,27.4,45.07A67.15,67.15,0,0,0,69,146.29c1.65.25,3.33.43,5,.64h9.12c1.93-.26,3.87-.48,5.8-.79A68,68,0,0,0,134,118.74,67.14,67.14,0,0,0,146.6,87.87c.25-1.65.43-3.33.64-5V73.75C147,71.81,146.77,69.87,146.45,67.94ZM103,110.8a15.1,15.1,0,0,1-8.4-2.4,14.71,14.71,0,0,1-6-10.56l-.12-1.32A26.81,26.81,0,0,1,78,100.6a17,17,0,0,1-2.52.12,22.39,22.39,0,0,1-2.4-44.64A17.7,17.7,0,0,1,75.6,56,23,23,0,0,1,87.48,59.2V56.8h12V96.16a3.44,3.44,0,0,0,3.48,3.6c2,0,3.36-1.92,5.4-4.32a32.4,32.4,0,0,0,1.8-3.48,5.42,5.42,0,0,0,.36-1.32l.12-.12c0-.12.12-.24.12-.36a5.57,5.57,0,0,0,.36-1.08l.12-.24a.37.37,0,0,1,.12-.24,3.81,3.81,0,0,1,.36-1.08v-.24c.12-.12.12-.12.12-.24a3.55,3.55,0,0,1,.24-1.2l.12-.24v-.24a3.31,3.31,0,0,0,.12-1.08l.12-.24v-.48c0-.24.12-.48.12-.84v-.24l.12-.24v-.36a1.78,1.78,0,0,0,.12-.84V78.28A34.43,34.43,0,0,0,101.64,53a33.41,33.41,0,0,0-23-8.88,34,34,0,0,0-34.32,34.2V80l.12.12V82a5.17,5.17,0,0,1,.24,1.44l.12.12v.24c0,.48.12,1,.12,1.32l.12.24a5.09,5.09,0,0,0,.24,1.32l.12.12v.12a4.25,4.25,0,0,0,.36,1.32l.12.36a4.3,4.3,0,0,0,.48,1.32l.12.24a6.33,6.33,0,0,1,.36,1.44l.12.12.12.12a12.42,12.42,0,0,1,.48,1.2l.12.12v.12a34.65,34.65,0,0,0,17.28,16.56c.48.24.84.24,1.32.48l.12.12h.36a4.7,4.7,0,0,0,1.08.48H68c0,.12.12.12.24.12l1.08.36.24.12h.24a5.56,5.56,0,0,1,1.08.36h.36c.12,0,.12,0,.24.12a3.35,3.35,0,0,1,1.08.12h.6c.36.12.72.12,1,.24h.48a.44.44,0,0,0,.36.12h1.56l.24.12h3.6v-.12h1.92a4.48,4.48,0,0,1,1.44-.24v-.12H84c.48,0,1-.12,1.44-.12h.12c.6-.12,1-.24,1.44-.36l.12-.12h.36l.6-.12.36.48,6.12,6.6,1.08,1.2-1.32.36A44.65,44.65,0,1,1,109.8,46.48H110a.42.42,0,0,0,.12.24l.24.24v.12a44.65,44.65,0,0,1,12.84,31.2C123.24,96.28,112.2,110.8,103,110.8Z" transform="translate(-9.97 -9.63)"/></svg>