<svg id="Layer_1" data-name="Layer 1" xmlns="http://www.w3.org/2000/svg" viewBox="0 0 156.1 155.37"><title>Untitled-1</title><path d="M145.89,66.69q-5-30.07-30.28-47.06A65.73,65.73,0,0,0,85.2,8.77,68.64,68.64,0,0,0,14,52.26,64.79,64.79,0,0,0,9.67,71.34a8.08,8.08,0,0,1-.25,1.16v9.12c0.26,1.94.48,3.88,0.79,5.81q4.55,28.09,27.4,45.07a67.15,67.15,0,0,0,30.87,12.56c1.67,0.24,3.34.42,5,.64h9.12c1.93-.26,3.88-0.48,5.8-0.79q28.09-4.55,45.07-27.4A67.14,67.14,0,0,0,146,86.63c0.24-1.67.43-3.35,0.64-5V72.5C146.42,70.56,146.21,68.62,145.89,66.69ZM59.6,43.09L81.48,81H37.72Zm38.72,71.18c-16.91,0-33.82-.06-50.73,0a10.54,10.54,0,0,1-10.12-5.86c-2.49-4.46-5.21-8.8-7.82-13.2V94.83c19.2,0,38.4.05,57.6,0a3.3,3.3,0,0,1,3.39,1.89c3.22,5.79,6.57,11.5,10,17.46C99.68,114.22,99,114.27,98.32,114.27Zm26.85-14.7c-2.75,4.84-5.55,9.66-8.44,14.67L67.83,29.5c0.71-.06,1.16-0.14,1.61-0.14,5,0,10,0,15,0a9.07,9.07,0,0,1,8.34,4.75q16.24,28.1,32.34,56.27A8.84,8.84,0,0,1,125.17,99.58Z"/></svg>