<svg id="Layer_1" data-name="Layer 1" xmlns="http://www.w3.org/2000/svg" viewBox="0 0 156.1 155.37"><title>Untitled-1</title><g id="XxMUL9.tif"><path fill="#FFFFFF" d="M9.42,81.61q0-4.56,0-9.12a8.08,8.08,0,0,0,.25-1.16A64.79,64.79,0,0,1,14,52.26,68.64,68.64,0,0,1,85.2,8.77a65.73,65.73,0,0,1,30.42,10.87q25.27,17,30.28,47.06c0.32,1.93.53,3.87,0.79,5.81v9.12c-0.21,1.67-.39,3.35-0.64,5a67.14,67.14,0,0,1-12.57,30.87q-17,22.8-45.07,27.4c-1.93.31-3.87,0.53-5.8,0.79H73.49c-1.67-.21-3.35-0.39-5-0.64a67.15,67.15,0,0,1-30.87-12.56q-22.8-17-27.4-45.07C9.9,85.49,9.68,83.55,9.42,81.61ZM86.66,50.34H69.57v59.9H86.63v-1.65c0-11.44,0-22.87,0-34.31a6.48,6.48,0,0,1,.72-2.92c2.25-4.21,6-5.76,10.59-5.55,3.15,0.14,5,1.65,5.56,4.71a17.23,17.23,0,0,1,.23,3.06q0,17.56,0,35.11v1.5h17.13c0-.29,0-0.47,0-0.65,0-11.93,0-23.86,0-35.78a34.58,34.58,0,0,0-1.81-11.85c-2-5.47-5.42-9.52-11.26-11-5.43-1.39-10.63-.27-15.64,1.89-1.9.82-3.65,2-5.57,3V50.34Zm-42.83,0V110.2h17V50.3h-17Zm9.05-3.79a8,8,0,1,0-8.06-8A8.08,8.08,0,0,0,52.87,46.52Z"/></g></svg>