<svg id="Layer_1" data-name="Layer 1" xmlns="http://www.w3.org/2000/svg" viewBox="0 0 156.1 155.37">
    <title>Facebook</title>
    <path fill="#FFFFFF" d="M145.89,69.89q-5-30.07-30.28-47.06A65.73,65.73,0,0,0,85.2,12,68.64,68.64,0,0,0,14,55.46,64.79,64.79,0,0,0,9.67,74.54a8.08,8.08,0,0,1-.25,1.16v9.12c0.26,1.94.48,3.88,0.79,5.81q4.55,28.09,27.4,45.07a67.15,67.15,0,0,0,30.87,12.56c1.67,0.24,3.34.42,5,.64h9.12c1.93-.26,3.88-0.48,5.8-0.79q28.09-4.55,45.07-27.4A67.14,67.14,0,0,0,146,89.84c0.24-1.67.43-3.35,0.64-5V75.7C146.42,73.77,146.21,71.82,145.89,69.89ZM95.22,80.23H84.33c0,0.32,0,.59,0,0.85q0,19.13,0,38.27c0,0.25,0,.51,0,0.76H69.39c0-1.93,0-3.86,0-5.79q0-16.56,0-33.11v-1H59.48c0-.27,0-0.48,0-0.68,0-4.12,0-8.24,0-12.35,0-.55.13-0.73,0.7-0.72,2.87,0,5.73,0,8.6,0a0.55,0.55,0,0,0,.69-0.68c0-3.69,0-7.39.13-11.08a18.25,18.25,0,0,1,1.92-7.84,10.84,10.84,0,0,1,6.2-5.34,20.15,20.15,0,0,1,6.61-1.17c4.07-.06,8.15,0,12.3,0,0,0.21,0,.42,0,0.62,0,4.14,0,8.28,0,12.42,0,0.58-.19.7-0.73,0.7-2.27,0-4.54,0-6.81,0a10.49,10.49,0,0,0-2.26.3,3.11,3.11,0,0,0-2.38,3.08c-0.08,2.82-.08,5.64-0.14,8.47,0,0.54.31,0.5,0.66,0.49H96.67Z"/>
</svg>