<?xml version="1.0" standalone="no"?><!-- Generator: Gravit.io --><svg xmlns="http://www.w3.org/2000/svg" xmlns:xlink="http://www.w3.org/1999/xlink" style="isolation:isolate" viewBox="0 0 156.1 155.37" width="156.1" height="155.37"><path d=" M 77.95 63.648 C 72.586 63.632 67.74 66.85 65.674 71.8 C 63.608 76.751 64.729 82.459 68.514 86.26 C 72.298 90.062 78.001 91.209 82.961 89.165 C 87.92 87.122 91.16 82.291 91.168 76.926 C 91.147 69.625 85.251 63.703 77.95 63.648 L 77.95 63.648 Z " fill="rgb(255,255,255)"/><path d=" M 110.482 66.89 C 110.428 63.469 110.195 60.052 109.784 56.655 C 108.946 50.669 104.846 46.479 98.94 45.152 C 95.32 44.501 91.642 44.227 87.966 44.334 Q 77.99 44.195 67.924 44.334 C 64.53 44.329 61.139 44.563 57.778 45.033 C 51.852 45.97 47.951 49.402 46.355 55.308 C 45.653 58.484 45.345 61.734 45.437 64.985 C 45.338 70.472 45.288 75.959 45.358 81.456 C 45.417 86.304 45.447 91.162 45.916 95.981 C 46.545 102.545 50.336 107.144 56.97 108.641 C 60.589 109.294 64.267 109.568 67.944 109.459 Q 77.92 109.598 87.896 109.459 C 91.321 109.46 94.741 109.22 98.132 108.74 C 103.868 107.833 107.799 104.55 109.375 98.844 C 109.881 96.971 110.172 95.047 110.243 93.108 C 110.452 87.711 110.512 82.314 110.622 76.906 L 110.502 76.906 C 110.502 73.574 110.592 70.232 110.482 66.89 Z  M 77.95 97.318 C 69.664 97.325 62.195 92.328 59.039 84.667 C 55.884 77.006 57.668 68.198 63.555 62.369 C 69.442 56.539 78.268 54.842 85.897 58.072 C 93.527 61.303 98.45 68.821 98.361 77.106 C 98.29 88.317 89.161 97.356 77.95 97.318 L 77.95 97.318 Z  M 99.189 60.486 C 96.537 60.47 94.384 58.338 94.341 55.687 C 94.338 54.409 94.845 53.183 95.75 52.28 C 96.654 51.378 97.881 50.873 99.159 50.879 C 100.435 50.851 101.666 51.347 102.565 52.252 C 103.465 53.157 103.954 54.392 103.918 55.667 C 103.929 58.298 101.82 60.447 99.189 60.486 L 99.189 60.486 Z " fill="rgb(255,255,255)"/><path d=" M 145.573 66.565 Q 140.585 36.567 115.365 19.617 C 106.311 13.539 95.884 9.815 85.028 8.783 C 54.277 5.554 25.177 23.334 14.017 52.169 C 11.612 58.257 10.145 64.675 9.668 71.204 C 9.613 71.595 9.53 71.982 9.418 72.361 L 9.418 81.459 C 9.678 83.395 9.897 85.33 10.206 87.256 Q 14.745 115.279 37.541 132.218 C 46.591 138.916 57.182 143.226 68.338 144.748 C 70.004 144.988 71.67 145.167 73.326 145.387 L 82.424 145.387 C 84.349 145.127 86.295 144.908 88.21 144.599 Q 116.233 140.059 133.173 117.264 C 139.894 108.218 144.225 97.622 145.763 86.457 C 146.002 84.791 146.192 83.115 146.401 81.469 L 146.401 72.361 C 146.102 70.426 145.882 68.49 145.573 66.565 Z  M 117.64 89.51 C 117.57 93.74 117.44 97.98 116.004 102.04 C 113.3 109.692 107.863 114.181 100.042 115.847 C 95.413 116.845 90.684 116.715 85.985 116.735 C 79.132 116.735 72.268 116.735 65.415 116.675 C 61.185 116.605 56.945 116.476 52.884 115.039 C 45.233 112.336 40.743 106.899 39.077 99.077 C 38.08 94.448 38.209 89.72 38.19 85.031 C 38.19 78.177 38.19 71.314 38.249 64.46 C 38.319 60.23 38.449 55.99 39.885 51.93 C 42.589 44.278 48.026 39.789 55.847 38.123 C 60.476 37.125 65.205 37.285 69.894 37.225 C 72.597 37.225 75.301 37.225 78.004 37.225 L 78.004 37.075 C 83.402 37.165 88.809 37.205 94.206 37.375 C 99.264 37.534 104.122 38.542 108.352 41.525 C 113.087 44.87 116.217 50.035 116.991 55.781 C 117.579 60.097 117.816 64.455 117.7 68.81 C 117.68 75.693 117.7 82.577 117.6 89.46 L 117.64 89.51 Z " fill="rgb(255,255,255)"/></svg>