<svg id="Layer_1" data-name="Layer 1" xmlns="http://www.w3.org/2000/svg" viewBox="0 0 156.1 155.37"><title>Untitled-1</title><path d="M78,63.8A13.29,13.29,0,1,0,91.25,77.11,13.35,13.35,0,0,0,78,63.8Z"/><path d="M110.61,67.05a98.5,98.5,0,0,0-.7-10.26c-0.84-6-4.95-10.2-10.87-11.53a53.36,53.36,0,0,0-11-.82q-10-.14-20.09,0a72.67,72.67,0,0,0-10.17.7c-5.94.94-9.85,4.38-11.45,10.3a39.67,39.67,0,0,0-.92,9.7c-0.1,5.5-.15,11-0.08,16.51,0.06,4.86.09,9.73,0.56,14.56,0.63,6.58,4.43,11.19,11.08,12.69a53.06,53.06,0,0,0,11,.82q10,0.14,20,0A73.18,73.18,0,0,0,98.23,109c5.75-.91,9.69-4.2,11.27-9.92a25.62,25.62,0,0,0,.87-5.75c0.21-5.41.27-10.82,0.38-16.24h-0.12C110.63,73.75,110.72,70.4,110.61,67.05ZM78,97.55A20.48,20.48,0,1,1,98.46,77.29,20.39,20.39,0,0,1,78,97.55ZM99.29,60.63a4.89,4.89,0,0,1-4.86-4.81A4.81,4.81,0,0,1,99.26,51a4.67,4.67,0,0,1,4.77,4.8A4.81,4.81,0,0,1,99.29,60.63Z"/><path d="M145.81,66.69q-5-30.07-30.28-47.06A65.73,65.73,0,0,0,85.12,8.77,68.64,68.64,0,0,0,13.94,52.26,64.79,64.79,0,0,0,9.58,71.34a8.08,8.08,0,0,1-.25,1.16v9.12c0.26,1.94.48,3.88,0.79,5.81q4.55,28.09,27.4,45.07a67.15,67.15,0,0,0,30.87,12.56c1.67,0.24,3.34.42,5,.64h9.12c1.93-.26,3.88-0.48,5.8-0.79q28.09-4.55,45.07-27.4A67.14,67.14,0,0,0,146,86.63c0.24-1.67.43-3.35,0.64-5V72.5C146.34,70.56,146.12,68.62,145.81,66.69Zm-28,23c-0.07,4.24-.2,8.49-1.64,12.56-2.71,7.67-8.16,12.17-16,13.84-4.64,1-9.38.87-14.09,0.89-6.87,0-13.75,0-20.62-.06-4.24-.07-8.49-0.2-12.56-1.64-7.67-2.71-12.17-8.16-13.84-16-1-4.64-.87-9.38-0.89-14.08,0-6.87,0-13.75.06-20.62,0.07-4.24.2-8.49,1.64-12.56,2.71-7.67,8.16-12.17,16-13.84,4.64-1,9.38-.84,14.08-0.9,2.71,0,5.42,0,8.13,0V37.13c5.41,0.09,10.83.13,16.24,0.3,5.07,0.16,9.94,1.17,14.18,4.16a20.92,20.92,0,0,1,8.66,14.29,80.76,80.76,0,0,1,.71,13.06C117.85,75.84,117.87,82.74,117.77,89.64Z"/></svg>